<svg xmlns="http://www.w3.org/2000/svg" viewBox="0 0 57.21 51.08">
  <title>google-logo-flat</title>
  <path d="M37.78,44.32,31.93,54.54H16.61a3.8,3.8,0,0,1-3.31-1.93L.9,30.91a3.88,3.88,0,0,1,0-3.82l4.72-8.25,14.6,25.48Z" transform="translate(-0.4 -3.46)" fill="#f8bb16"/>
  <path d="M57.1,30.91,44.7,52.61a3.8,3.8,0,0,1-3.31,1.93H31.93L46.56,29,37.78,13.68H49.43L57.1,27.09A3.88,3.88,0,0,1,57.1,30.91Z" transform="translate(-0.4 -3.46)" fill="#ea4334"/>
  <path d="M49.43,13.68H20.22L11.44,29,5.62,18.84,13.3,5.39a3.8,3.8,0,0,1,3.31-1.93H41.39A3.8,3.8,0,0,1,44.7,5.39Z" transform="translate(-0.4 -3.46)" fill="#0074bc"/>
  <path d="M37.78,13.68,46.56,29,37.78,44.32H20.22L11.44,29l8.78-15.32Z" transform="translate(-0.4 -3.46)" fill="#e2e3e4"/>
  <path d="M29,21.34A7.66,7.66,0,1,1,21.37,29,7.65,7.65,0,0,1,29,21.34Z" transform="translate(-0.4 -3.46)" fill="#fff"/>
</svg>